# xmcd
#
# Track frame offsets:
#	150
#	5477
#	11782
#	17511
#	25534
#	30688
#	39692
#	47812
#	52949
#	59787
#	68115
#	75579
#	80176
#	87928
#	93207
#	100342
#	111604
#	117365
#	123498
#	130231
#	137254
#	144850
#	151337
#	156635
#	162519
#	167924
#	171697
#	179135
#	190249
#	196285
#	203382
#	213464
#	223987
#	230983
#	248499
#
# Disc length: 3950 seconds
#
# Revision: 2
# Processed by: cddbd v1.5.1PL0 Copyright (c) Steve Scherf et al.
# Submitted via: EasyCDDAExtractor 7.0.6.1
#
DISCID=fe0f6c23
DTITLE=Redliningit.com
DYEAR=1900
DGENRE=
TTITLE0=AC Cobra
TTITLE1=Aston Martin DB7 Vantage
TTITLE2=Audi Quattro Turbo Coupe
TTITLE3=Bently Azure
TTITLE4=Bently Arnage Red Label
TTITLE5=BMW M3 Coupe
TTITLE6=Chevrolet Camaro SS Race Car
TTITLE7=Cheverolet Corvette Stringray
TTITLE8=Ferrari 355 Spider
TTITLE9=Ferrari 360 Modena
TTITLE10=Ferrari 360 Spider
TTITLE11=Ferrari 512M
TTITLE12=Ferrari 512TR
TTITLE13=Ford Falcon XR8
TTITLE14=Ford Mustang Cobra Convertible
TTITLE15=Ford Mustang GT350 Fastback Race Car
TTITLE16=Ford Shelby Mustang GT500
TTITLE17=Ford Sierra RS Cosworth Race Car
TTITLE18=Holden HSV GTS300
TTITLE19=Holden Commodore VX Race Car
TTITLE20=International Paystar Race Truck
TTITLE21=Jaguar E Type
TTITLE22=Lamborghini Diablo VT Roadster
TTITLE23=Lamborghini Diablo VT
TTITLE24=Maserati 3200 GT
TTITLE25=Mazda RX7 Efini
TTITLE26=Mercedes Benz CLK 55 AMG
TTITLE27=Nissan Skyline R32 GTR
TTITLE28=Porsche 911 GT2
TTITLE29=Porsche 993 Bi-Turbo
TTITLE30=Porsche 993 RS
TTITLE31=Porsche GT3 Cup Car
TTITLE32=Subaru WRX 22B
TTITLE33=TVR Tuscan Race Car
TTITLE34=Data Track
EXTD=www.redliningit.com
EXTT0=
EXTT1=
EXTT2=
EXTT3=
EXTT4=
EXTT5=
EXTT6=
EXTT7=
EXTT8=
EXTT9=
EXTT10=
EXTT11=
EXTT12=
EXTT13=
EXTT14=
EXTT15=
EXTT16=
EXTT17=
EXTT18=
EXTT19=
EXTT20=
EXTT21=
EXTT22=
EXTT23=
EXTT24=
EXTT25=
EXTT26=
EXTT27=
EXTT28=
EXTT29=
EXTT30=
EXTT31=
EXTT32=
EXTT33=
EXTT34=
PLAYORDER=
